<svg viewBox="0 0 100 100">
    <path d="M7 15c-2,-2 -2,-5 0,-8 3,-2 6,-2 8,0 10,-9 26,-9 36,0l24 25c2,2 5,2 9,1 3,-1 7,-1 9,1 2,3 6,6 6,6l0 0c4,5 -3,19 -16,34 0,-2 -1,-4 -2,-6 10,-12 13,-21 13,-24 0,0 0,0 0,0 -6,0 -18,7 -31,19 0,1 -1,2 -2,3 2,-1 4,-1 6,-1 3,0 6,1 9,3 1,1 1,2 2,3 0,0 0,0 0,0 0,0 0,0 0,0 0,1 1,2 1,3 0,0 0,0 0,1 0,0 0,1 0,1 0,0 0,0 0,0 0,1 0,1 0,2 0,0 0,0 0,0 0,0 0,0 0,0 0,3 -1,6 -3,8 -3,3 -6,4 -9,4 -1,0 -1,0 -1,0l0 0 0 0c-1,0 -2,0 -2,0 0,0 0,0 0,0 -1,0 -3,-1 -4,-1 0,0 0,0 0,0 -1,-1 -2,-2 -2,-3 -4,-3 -5,-8 -4,-12 -7,10 -10,17 -10,20 0,0 0,0 0,0 3,0 6,-2 11,-4 2,1 4,3 6,3 -7,5 -13,7 -17,7 -2,0 -3,0 -4,-1l0 0c0,0 -3,-4 -6,-6 -2,-2 -1,-6 -1,-9 0,-3 1,-7 -1,-9l-25 -24c-9,-10 -9,-26 0,-36z"/>
</svg>