<svg viewBox="0 0 1000 140">
	<path d="M966 138l0 -136 34 0 0 136 -34 0zm-92 2c-43,0 -63,-24 -63,-57l0 -81 35 0 0 80c0,16 9,27 28,27 18,0 28,-11 28,-27l0 -80 35 0 0 81c0,33 -20,57 -63,57zm-230 -138l34 0 0 105 54 0 0 31 -88 0 0 -136zm-60 116l-52 0 -7 20 -39 0 50 -136 44 0 50 136 -39 0 -7 -20zm-26 -81l-17 51 34 0 -17 -51zm-121 -35l34 0 0 136 -34 0 0 -136zm-78 107c13,0 24,-9 29,-20l29 15c-8,17 -26,36 -58,36 -41,0 -72,-28 -72,-70 0,-42 31,-70 72,-70 32,0 50,18 58,36l-29 15c-5,-11 -16,-20 -29,-20 -22,0 -37,17 -37,39 0,22 15,39 37,39zm-159 31c-41,0 -71,-29 -71,-70 0,-41 30,-70 71,-70 41,0 71,29 71,70 0,41 -30,70 -71,70zm0 -109c-22,0 -36,17 -36,39 0,22 14,39 36,39 22,0 36,-17 36,-39 0,-22 -14,-39 -36,-39zm-141 109c-27,0 -46,-9 -59,-22l18 -27c10,10 25,18 43,18 12,0 19,-4 19,-11 0,-17 -76,-3 -76,-55 0,-23 19,-43 53,-43 22,0 40,7 55,19l-19 26c-11,-9 -26,-14 -39,-14 -10,0 -15,3 -15,9 0,17 76,4 76,55 0,27 -20,45 -56,45z"/>
</svg>