<svg viewBox="0 0 100 100"><path d="M98 42l-13 -2c0,-3 -1,-5 -3,-8l8 -10c0,-1 0,-2 0,-3l-9 -9c-1,0 -2,0 -3,0l-10 8c-3,-2 -5,-3 -8,-3l-2 -13c0,-1 -1,-2 -2,-2l-12 0c-1,0 -2,1 -2,2l-2 13c-3,0 -5,1 -8,3l-10 -8c-1,-1 -2,0 -3,0l-9 9c0,1 0,2 0,3l8 10c-2,3 -3,5 -4,8l-12 2c-1,0 -2,1 -2,2l0 12c0,1 1,2 2,2l12 2c1,3 2,5 4,8l-8 10c-1,1 0,2 0,3l9 9c1,0 2,0 3,0l10 -8c3,2 5,3 8,3l2 13c0,1 1,2 2,2l12 0c1,0 2,-1 2,-2l2 -13c3,0 5,-1 8,-3l10 8c1,0 2,0 3,0l9 -9c0,-1 1,-2 0,-3l-8 -10c2,-3 3,-5 3,-8l13 -2c1,0 2,-1 2,-2l0 -12c0,-1 -1,-2 -2,-2zm-48 23c-8,0 -15,-7 -15,-15 0,-8 7,-15 15,-15 8,0 15,7 15,15 0,8 -7,15 -15,15z"/></svg>