<svg viewBox="0 0 100 100"><path class="fil0" d="M85 15c-19,-20 -51,-20 -70,0 -20,19 -20,51 0,70 19,20 51,20 70,0 20,-19 20,-51 0,-70zm-5 65c-17,16 -43,16 -60,0 -16,-17 -16,-43 0,-60 17,-16 43,-16 60,0 16,17 16,43 0,60zm-49 -44c0,-3 3,-5 6,-5 3,0 6,2 6,5 0,4 -3,6 -6,6 -3,0 -6,-2 -6,-6zm27 0c0,-3 2,-5 6,-5 3,0 6,2 6,5 0,4 -3,6 -6,6 -4,0 -6,-2 -6,-6zm14 24c-4,9 -12,14 -22,14 -10,0 -18,-5 -22,-14 0,-1 0,-3 2,-3 0,-1 1,-1 1,-1 1,0 2,1 3,2 2,6 9,11 16,11 7,0 14,-5 16,-11 1,-1 3,-2 4,-1 2,0 2,2 2,3z"/></svg>