<svg viewBox="0 0 100 100">
	<path class="fil0" d="M100 50c0,-28 -22,-50 -50,-50 -28,0 -50,22 -50,50 0,15 6,28 16,37l0 0 2 1c0,0 0,0 0,0 1,1 2,2 3,3 0,0 0,0 1,0 1,1 2,1 3,2 0,0 0,0 0,0 1,1 3,2 4,2 0,0 0,0 0,0 4,2 8,3 12,4 0,0 0,0 0,0 2,0 3,1 4,1 1,0 1,0 1,0 1,0 3,0 4,0 1,0 3,0 4,0 0,0 0,0 1,0 1,0 2,-1 4,-1 0,0 0,0 0,0 4,-1 8,-2 12,-4 0,0 0,0 0,0 1,0 2,-1 3,-1 1,-1 1,-1 1,-1 1,0 2,-1 3,-2 0,0 1,0 1,0 1,-1 2,-2 2,-2 1,0 1,0 1,-1l2 -1 0 0c10,-9 16,-22 16,-37zm-96 0c0,-26 20,-46 46,-46 26,0 46,20 46,46 0,14 -6,26 -15,35 -1,-1 -1,-1 -2,-1l-15 -8c-2,-1 -3,-2 -3,-4l0 -5c1,0 1,-1 2,-1 2,-3 3,-6 4,-10 3,-1 4,-3 4,-6l0 -6c0,-2 0,-3 -1,-5l0 -8c0,-1 0,-6 -4,-11 -3,-4 -9,-5 -16,-5 -7,0 -13,1 -16,5 -4,5 -4,10 -4,11l0 8c-1,2 -1,3 -1,5l0 6c0,2 1,4 2,5 2,6 5,10 6,12l0 5c0,2 -1,3 -2,4l-15 8c0,0 -1,0 -1,0 -9,-8 -15,-20 -15,-34z"/>
</svg>