<svg viewBox="0 0 100 100">
	<path d="M8 76l16 -8c2,-1 3,-3 3,-4l0 -6c-1,0 -1,-1 -2,-1 -2,-3 -3,-7 -4,-10 -3,-1 -4,-4 -4,-6l0 -7c0,-1 0,-3 1,-4l0 -9c0,-1 0,-6 4,-11 3,-4 9,-6 16,-6 8,0 13,2 17,6 4,5 3,10 3,11l0 9c1,1 2,3 2,4l0 7c0,2 -1,4 -2,5 -2,6 -5,11 -6,12l0 6c0,1 1,3 2,3l15 9c5,2 8,7 8,13l0 7 -77 0 0 -7c0,-6 3,-11 8,-13z"/>
	<path d="M70 73l-15 -8c0,0 -1,-1 -1,-1l0 -5c2,-2 4,-6 6,-12 2,-1 2,-4 2,-6l0 -7c0,-2 0,-4 -1,-5l0 -8c0,-1 0,-2 0,-4 2,-1 5,-1 7,-1 18,0 19,15 19,15l0 7c1,2 1,3 1,4l0 6c0,2 0,4 -2,5 -1,5 -5,9 -6,10l0 5c0,1 1,2 2,3l11 7c4,2 7,7 7,12l0 6 -21 0 0 -7c0,-7 -3,-13 -9,-16z"/>
</svg>
